<?xml version="1.0" encoding="UTF-8"?>
<svg xmlns="http://www.w3.org/2000/svg" xmlns:xlink="http://www.w3.org/1999/xlink" width="612" height="792" viewBox="0 0 612 792">
<defs>
<clipPath id="clip-0">
<path clip-rule="nonzero" d="M 6 6 L 28.5 6 L 28.5 28.5 L 6 28.5 Z M 6 6 "/>
</clipPath>
</defs>
<g clip-path="url(#clip-0)">
<path fill-rule="nonzero" fill="rgb(72.938538%, 51.759338%, 100%)" fill-opacity="1" d="M 21.140625 13.03125 C 20.5 9.105469 19 6.351562 17.25 6.351562 C 15.5 6.351562 13.996094 9.105469 13.359375 13.03125 Z M 13.03125 17.25 C 13.03125 18.226562 13.082031 19.160156 13.175781 20.0625 L 21.320312 20.0625 C 21.410156 19.160156 21.464844 18.226562 21.464844 17.25 C 21.464844 16.273438 21.410156 15.339844 21.320312 14.4375 L 13.175781 14.4375 C 13.082031 15.339844 13.03125 16.273438 13.03125 17.25 Z M 27.300781 13.03125 C 26.042969 10.046875 23.5 7.738281 20.355469 6.808594 C 21.429688 8.292969 22.167969 10.53125 22.554688 13.03125 Z M 14.136719 6.808594 C 11 7.738281 8.453125 10.046875 7.199219 13.03125 L 11.945312 13.03125 C 12.328125 10.53125 13.066406 8.292969 14.136719 6.808594 Z M 27.769531 14.4375 L 22.730469 14.4375 C 22.824219 15.359375 22.875 16.304688 22.875 17.25 C 22.875 18.195312 22.820312 19.140625 22.730469 20.0625 L 27.765625 20.0625 C 28.007812 19.160156 28.144531 18.226562 28.144531 17.25 C 28.144531 16.273438 28.007812 15.339844 27.769531 14.4375 Z M 11.625 17.25 C 11.625 16.304688 11.675781 15.359375 11.769531 14.4375 L 6.730469 14.4375 C 6.492188 15.339844 6.351562 16.273438 6.351562 17.25 C 6.351562 18.226562 6.492188 19.160156 6.730469 20.0625 L 11.765625 20.0625 C 11.675781 19.140625 11.625 18.195312 11.625 17.25 Z M 13.359375 21.46875 C 13.996094 25.394531 15.5 28.148438 17.25 28.148438 C 19 28.148438 20.5 25.394531 21.140625 21.46875 Z M 20.359375 27.691406 C 23.5 26.757812 26.046875 24.453125 27.304688 21.46875 L 22.558594 21.46875 C 22.171875 23.96875 21.433594 26.207031 20.359375 27.691406 Z M 7.199219 21.46875 C 8.457031 24.453125 11 26.757812 14.144531 27.691406 C 13.070312 26.207031 12.332031 23.96875 11.945312 21.46875 Z M 7.199219 21.46875 "/>
</g>
</svg>
